<mxfile host="app.diagrams.net" modified="2023-08-23T05:42:42.499Z" agent="Mozilla/5.0 (Macintosh; Intel Mac OS X 10.15; rv:109.0) Gecko/20100101 Firefox/116.0" etag="sHJe1qVAYAAUq1s3gtaU" version="21.6.9" type="github">
  <diagram id="KEHP5pmjJlhnKJyXC9Jy" name="Page-1">
    <mxGraphModel dx="4148" dy="2202" grid="1" gridSize="10" guides="1" tooltips="1" connect="1" arrows="1" fold="1" page="1" pageScale="1" pageWidth="850" pageHeight="1100" math="0" shadow="0">
      <root>
        <mxCell id="0" />
        <mxCell id="1" parent="0" />
        <mxCell id="ztzkhqZgpPjDbpLTwm-F-112" value="" style="rounded=0;whiteSpace=wrap;html=1;fillColor=#ffe6cc;strokeColor=#d79b00;" parent="1" vertex="1">
          <mxGeometry x="50" y="-900" width="700" height="200" as="geometry" />
        </mxCell>
        <mxCell id="ztzkhqZgpPjDbpLTwm-F-166" value="" style="html=1;dropTarget=0;fontSize=16;fillColor=#ffcccc;strokeColor=#36393d;" parent="1" vertex="1">
          <mxGeometry x="80" y="-860" width="430" height="140" as="geometry" />
        </mxCell>
        <mxCell id="ztzkhqZgpPjDbpLTwm-F-167" value="" style="shape=module;jettyWidth=8;jettyHeight=4;fontSize=16;" parent="ztzkhqZgpPjDbpLTwm-F-166" vertex="1">
          <mxGeometry x="1" width="20" height="20" relative="1" as="geometry">
            <mxPoint x="-27" y="7" as="offset" />
          </mxGeometry>
        </mxCell>
        <mxCell id="ztzkhqZgpPjDbpLTwm-F-27" value="" style="rounded=0;whiteSpace=wrap;html=1;fillColor=#fff2cc;strokeColor=#d6b656;" parent="1" vertex="1">
          <mxGeometry x="-720" y="-330" width="660" height="590" as="geometry" />
        </mxCell>
        <mxCell id="ztzkhqZgpPjDbpLTwm-F-1" value="BASF Partner Admin&lt;br&gt;(Supplier, logistic, pre-process)" style="shape=umlActor;verticalLabelPosition=bottom;verticalAlign=top;html=1;outlineConnect=0;" parent="1" vertex="1">
          <mxGeometry x="-860" y="-295" width="30" height="60" as="geometry" />
        </mxCell>
        <mxCell id="ztzkhqZgpPjDbpLTwm-F-2" value="BASF Admin" style="shape=umlActor;verticalLabelPosition=bottom;verticalAlign=top;html=1;outlineConnect=0;" parent="1" vertex="1">
          <mxGeometry x="-860" y="150" width="30" height="60" as="geometry" />
        </mxCell>
        <mxCell id="ztzkhqZgpPjDbpLTwm-F-13" value="Use" style="endArrow=open;endSize=12;dashed=1;html=1;rounded=0;entryX=0;entryY=0.25;entryDx=0;entryDy=0;exitX=0.5;exitY=0.5;exitDx=0;exitDy=0;exitPerimeter=0;" parent="1" source="ztzkhqZgpPjDbpLTwm-F-1" target="ztzkhqZgpPjDbpLTwm-F-9" edge="1">
          <mxGeometry width="160" relative="1" as="geometry">
            <mxPoint x="-810" y="-10" as="sourcePoint" />
            <mxPoint x="-650" y="-10" as="targetPoint" />
          </mxGeometry>
        </mxCell>
        <mxCell id="ztzkhqZgpPjDbpLTwm-F-15" value="Use" style="endArrow=open;endSize=12;dashed=1;html=1;rounded=0;entryX=0;entryY=0.75;entryDx=0;entryDy=0;exitX=0.5;exitY=0.5;exitDx=0;exitDy=0;exitPerimeter=0;" parent="1" source="ztzkhqZgpPjDbpLTwm-F-2" target="ztzkhqZgpPjDbpLTwm-F-9" edge="1">
          <mxGeometry width="160" relative="1" as="geometry">
            <mxPoint x="-780" y="20" as="sourcePoint" />
            <mxPoint x="-575" y="162.5" as="targetPoint" />
          </mxGeometry>
        </mxCell>
        <mxCell id="ztzkhqZgpPjDbpLTwm-F-17" value="«ui»&lt;br&gt;&lt;b&gt;Company Management&lt;/b&gt;" style="html=1;dropTarget=0;" parent="1" vertex="1">
          <mxGeometry x="-605" y="-200" width="180" height="90" as="geometry" />
        </mxCell>
        <mxCell id="ztzkhqZgpPjDbpLTwm-F-18" value="" style="shape=module;jettyWidth=8;jettyHeight=4;" parent="ztzkhqZgpPjDbpLTwm-F-17" vertex="1">
          <mxGeometry x="1" width="20" height="20" relative="1" as="geometry">
            <mxPoint x="-27" y="7" as="offset" />
          </mxGeometry>
        </mxCell>
        <mxCell id="ztzkhqZgpPjDbpLTwm-F-19" value="«ui»&lt;br&gt;&lt;b&gt;User Management&lt;/b&gt;" style="html=1;dropTarget=0;" parent="1" vertex="1">
          <mxGeometry x="-605" y="-300" width="180" height="90" as="geometry" />
        </mxCell>
        <mxCell id="ztzkhqZgpPjDbpLTwm-F-20" value="" style="shape=module;jettyWidth=8;jettyHeight=4;" parent="ztzkhqZgpPjDbpLTwm-F-19" vertex="1">
          <mxGeometry x="1" width="20" height="20" relative="1" as="geometry">
            <mxPoint x="-27" y="7" as="offset" />
          </mxGeometry>
        </mxCell>
        <mxCell id="ztzkhqZgpPjDbpLTwm-F-21" value="«ui»&lt;br&gt;&lt;b&gt;Partner Invitation&lt;/b&gt;" style="html=1;dropTarget=0;" parent="1" vertex="1">
          <mxGeometry x="-605" y="-80" width="180" height="90" as="geometry" />
        </mxCell>
        <mxCell id="ztzkhqZgpPjDbpLTwm-F-22" value="" style="shape=module;jettyWidth=8;jettyHeight=4;" parent="ztzkhqZgpPjDbpLTwm-F-21" vertex="1">
          <mxGeometry x="1" width="20" height="20" relative="1" as="geometry">
            <mxPoint x="-27" y="7" as="offset" />
          </mxGeometry>
        </mxCell>
        <mxCell id="ztzkhqZgpPjDbpLTwm-F-23" value="«ui»&lt;br&gt;&lt;b&gt;Statistic and report&lt;/b&gt;" style="html=1;dropTarget=0;" parent="1" vertex="1">
          <mxGeometry x="-605" y="40" width="180" height="90" as="geometry" />
        </mxCell>
        <mxCell id="ztzkhqZgpPjDbpLTwm-F-24" value="" style="shape=module;jettyWidth=8;jettyHeight=4;" parent="ztzkhqZgpPjDbpLTwm-F-23" vertex="1">
          <mxGeometry x="1" width="20" height="20" relative="1" as="geometry">
            <mxPoint x="-27" y="7" as="offset" />
          </mxGeometry>
        </mxCell>
        <mxCell id="ztzkhqZgpPjDbpLTwm-F-28" value="«component»&lt;br&gt;&lt;b&gt;API Services&lt;/b&gt;" style="html=1;dropTarget=0;" parent="1" vertex="1">
          <mxGeometry x="-287.5" y="-250" width="180" height="90" as="geometry" />
        </mxCell>
        <mxCell id="ztzkhqZgpPjDbpLTwm-F-29" value="" style="shape=module;jettyWidth=8;jettyHeight=4;" parent="ztzkhqZgpPjDbpLTwm-F-28" vertex="1">
          <mxGeometry x="1" width="20" height="20" relative="1" as="geometry">
            <mxPoint x="-27" y="7" as="offset" />
          </mxGeometry>
        </mxCell>
        <mxCell id="ztzkhqZgpPjDbpLTwm-F-33" value="Use" style="endArrow=open;endSize=12;dashed=1;html=1;rounded=0;exitX=1;exitY=0.5;exitDx=0;exitDy=0;entryX=0;entryY=0.5;entryDx=0;entryDy=0;" parent="1" source="ztzkhqZgpPjDbpLTwm-F-17" target="ztzkhqZgpPjDbpLTwm-F-28" edge="1">
          <mxGeometry width="160" relative="1" as="geometry">
            <mxPoint x="-210" y="-50" as="sourcePoint" />
            <mxPoint x="-50" y="-50" as="targetPoint" />
          </mxGeometry>
        </mxCell>
        <mxCell id="ztzkhqZgpPjDbpLTwm-F-34" value="Use" style="endArrow=open;endSize=12;dashed=1;html=1;rounded=0;entryX=0;entryY=0.25;entryDx=0;entryDy=0;exitX=1;exitY=0.5;exitDx=0;exitDy=0;" parent="1" source="ztzkhqZgpPjDbpLTwm-F-19" target="ztzkhqZgpPjDbpLTwm-F-28" edge="1">
          <mxGeometry width="160" relative="1" as="geometry">
            <mxPoint x="-270" y="-60" as="sourcePoint" />
            <mxPoint x="-110" y="-60" as="targetPoint" />
          </mxGeometry>
        </mxCell>
        <mxCell id="ztzkhqZgpPjDbpLTwm-F-35" value="Use" style="endArrow=open;endSize=12;dashed=1;html=1;rounded=0;entryX=0;entryY=0.75;entryDx=0;entryDy=0;exitX=1;exitY=0.5;exitDx=0;exitDy=0;" parent="1" source="ztzkhqZgpPjDbpLTwm-F-21" target="ztzkhqZgpPjDbpLTwm-F-28" edge="1">
          <mxGeometry width="160" relative="1" as="geometry">
            <mxPoint x="-210" y="-50" as="sourcePoint" />
            <mxPoint x="-50" y="-50" as="targetPoint" />
          </mxGeometry>
        </mxCell>
        <mxCell id="ztzkhqZgpPjDbpLTwm-F-36" value="Use" style="endArrow=open;endSize=12;dashed=1;html=1;rounded=0;entryX=0;entryY=1;entryDx=0;entryDy=0;exitX=1;exitY=0.5;exitDx=0;exitDy=0;" parent="1" source="ztzkhqZgpPjDbpLTwm-F-23" target="ztzkhqZgpPjDbpLTwm-F-28" edge="1">
          <mxGeometry width="160" relative="1" as="geometry">
            <mxPoint x="-210" y="-50" as="sourcePoint" />
            <mxPoint x="-50" y="-50" as="targetPoint" />
          </mxGeometry>
        </mxCell>
        <mxCell id="ztzkhqZgpPjDbpLTwm-F-37" value="Use" style="endArrow=open;endSize=12;dashed=1;html=1;rounded=0;entryX=0;entryY=0.5;entryDx=0;entryDy=0;exitX=0.5;exitY=0.5;exitDx=0;exitDy=0;exitPerimeter=0;" parent="1" source="ztzkhqZgpPjDbpLTwm-F-1" target="ztzkhqZgpPjDbpLTwm-F-17" edge="1">
          <mxGeometry width="160" relative="1" as="geometry">
            <mxPoint x="-400" y="-50" as="sourcePoint" />
            <mxPoint x="-240" y="-50" as="targetPoint" />
          </mxGeometry>
        </mxCell>
        <mxCell id="ztzkhqZgpPjDbpLTwm-F-38" value="Use" style="endArrow=open;endSize=12;dashed=1;html=1;rounded=0;entryX=0;entryY=0.5;entryDx=0;entryDy=0;exitX=0.5;exitY=0.5;exitDx=0;exitDy=0;exitPerimeter=0;" parent="1" source="ztzkhqZgpPjDbpLTwm-F-1" target="ztzkhqZgpPjDbpLTwm-F-19" edge="1">
          <mxGeometry width="160" relative="1" as="geometry">
            <mxPoint x="-400" y="-50" as="sourcePoint" />
            <mxPoint x="-240" y="-50" as="targetPoint" />
          </mxGeometry>
        </mxCell>
        <mxCell id="ztzkhqZgpPjDbpLTwm-F-39" value="Use" style="endArrow=open;endSize=12;dashed=1;html=1;rounded=0;entryX=0;entryY=0.889;entryDx=0;entryDy=0;entryPerimeter=0;" parent="1" source="ztzkhqZgpPjDbpLTwm-F-2" target="ztzkhqZgpPjDbpLTwm-F-17" edge="1">
          <mxGeometry width="160" relative="1" as="geometry">
            <mxPoint x="-400" y="-50" as="sourcePoint" />
            <mxPoint x="-240" y="-50" as="targetPoint" />
          </mxGeometry>
        </mxCell>
        <mxCell id="ztzkhqZgpPjDbpLTwm-F-41" value="Use" style="endArrow=open;endSize=12;dashed=1;html=1;rounded=0;entryX=0;entryY=0.5;entryDx=0;entryDy=0;exitX=0.5;exitY=0.5;exitDx=0;exitDy=0;exitPerimeter=0;" parent="1" source="ztzkhqZgpPjDbpLTwm-F-2" target="ztzkhqZgpPjDbpLTwm-F-21" edge="1">
          <mxGeometry width="160" relative="1" as="geometry">
            <mxPoint x="-400" y="-50" as="sourcePoint" />
            <mxPoint x="-240" y="-50" as="targetPoint" />
          </mxGeometry>
        </mxCell>
        <mxCell id="ztzkhqZgpPjDbpLTwm-F-42" value="Use" style="endArrow=open;endSize=12;dashed=1;html=1;rounded=0;entryX=0;entryY=0.5;entryDx=0;entryDy=0;exitX=0.5;exitY=0.5;exitDx=0;exitDy=0;exitPerimeter=0;" parent="1" source="ztzkhqZgpPjDbpLTwm-F-2" target="ztzkhqZgpPjDbpLTwm-F-23" edge="1">
          <mxGeometry width="160" relative="1" as="geometry">
            <mxPoint x="-400" y="-50" as="sourcePoint" />
            <mxPoint x="-240" y="-50" as="targetPoint" />
          </mxGeometry>
        </mxCell>
        <mxCell id="ztzkhqZgpPjDbpLTwm-F-43" value="Web Application" style="text;html=1;strokeColor=none;fillColor=none;align=center;verticalAlign=middle;whiteSpace=wrap;rounded=0;" parent="1" vertex="1">
          <mxGeometry x="-720" y="-330" width="120" height="30" as="geometry" />
        </mxCell>
        <mxCell id="ztzkhqZgpPjDbpLTwm-F-9" value="«component»&lt;br&gt;&lt;b&gt;Authentication/Authorization&lt;br&gt;(B2B)&lt;br&gt;&lt;/b&gt;" style="html=1;dropTarget=0;" parent="1" vertex="1">
          <mxGeometry x="-605" y="150" width="180" height="90" as="geometry" />
        </mxCell>
        <mxCell id="ztzkhqZgpPjDbpLTwm-F-10" value="" style="shape=module;jettyWidth=8;jettyHeight=4;" parent="ztzkhqZgpPjDbpLTwm-F-9" vertex="1">
          <mxGeometry x="1" width="20" height="20" relative="1" as="geometry">
            <mxPoint x="-27" y="7" as="offset" />
          </mxGeometry>
        </mxCell>
        <mxCell id="ztzkhqZgpPjDbpLTwm-F-46" value="Use" style="endArrow=open;endSize=12;dashed=1;html=1;rounded=0;exitX=1;exitY=0.5;exitDx=0;exitDy=0;" parent="1" source="ztzkhqZgpPjDbpLTwm-F-9" edge="1">
          <mxGeometry width="160" relative="1" as="geometry">
            <mxPoint x="-405" y="-125" as="sourcePoint" />
            <mxPoint x="-290" y="-160" as="targetPoint" />
          </mxGeometry>
        </mxCell>
        <mxCell id="ztzkhqZgpPjDbpLTwm-F-47" value="" style="html=1;dropTarget=0;" parent="1" vertex="1">
          <mxGeometry x="-287.5" y="-120" width="200" height="280" as="geometry" />
        </mxCell>
        <mxCell id="ztzkhqZgpPjDbpLTwm-F-48" value="" style="shape=module;jettyWidth=8;jettyHeight=4;" parent="ztzkhqZgpPjDbpLTwm-F-47" vertex="1">
          <mxGeometry x="1" width="20" height="20" relative="1" as="geometry">
            <mxPoint x="-27" y="7" as="offset" />
          </mxGeometry>
        </mxCell>
        <mxCell id="ztzkhqZgpPjDbpLTwm-F-51" value="«ui»&lt;br&gt;&lt;b&gt;pages&lt;/b&gt;" style="html=1;dropTarget=0;" parent="1" vertex="1">
          <mxGeometry x="-277.5" y="-60" width="180" height="90" as="geometry" />
        </mxCell>
        <mxCell id="ztzkhqZgpPjDbpLTwm-F-52" value="" style="shape=module;jettyWidth=8;jettyHeight=4;" parent="ztzkhqZgpPjDbpLTwm-F-51" vertex="1">
          <mxGeometry x="1" width="20" height="20" relative="1" as="geometry">
            <mxPoint x="-27" y="7" as="offset" />
          </mxGeometry>
        </mxCell>
        <mxCell id="ztzkhqZgpPjDbpLTwm-F-53" value="«ui»&lt;br&gt;&lt;b&gt;reusable ui components&lt;/b&gt;" style="html=1;dropTarget=0;" parent="1" vertex="1">
          <mxGeometry x="-277.5" y="50" width="180" height="90" as="geometry" />
        </mxCell>
        <mxCell id="ztzkhqZgpPjDbpLTwm-F-54" value="" style="shape=module;jettyWidth=8;jettyHeight=4;" parent="ztzkhqZgpPjDbpLTwm-F-53" vertex="1">
          <mxGeometry x="1" width="20" height="20" relative="1" as="geometry">
            <mxPoint x="-27" y="7" as="offset" />
          </mxGeometry>
        </mxCell>
        <mxCell id="ztzkhqZgpPjDbpLTwm-F-55" value="&lt;div style=&quot;border-color: var(--border-color); text-align: left;&quot;&gt;LMPC - Truck Driver&lt;/div&gt;&lt;div style=&quot;border-color: var(--border-color); text-align: left;&quot;&gt;LMPC - Goods Receipt&lt;/div&gt;&lt;div style=&quot;border-color: var(--border-color); text-align: left;&quot;&gt;LMPC - Production&lt;/div&gt;" style="shape=umlActor;verticalLabelPosition=bottom;verticalAlign=top;html=1;" parent="1" vertex="1">
          <mxGeometry x="-850" y="-730" width="30" height="60" as="geometry" />
        </mxCell>
        <mxCell id="ztzkhqZgpPjDbpLTwm-F-56" value="" style="rounded=0;whiteSpace=wrap;html=1;fillColor=#d5e8d4;strokeColor=#82b366;" parent="1" vertex="1">
          <mxGeometry x="-720" y="-950" width="660" height="570" as="geometry" />
        </mxCell>
        <mxCell id="ztzkhqZgpPjDbpLTwm-F-57" value="Mobile Application" style="text;html=1;strokeColor=none;fillColor=none;align=center;verticalAlign=middle;whiteSpace=wrap;rounded=0;" parent="1" vertex="1">
          <mxGeometry x="-710" y="-950" width="120" height="30" as="geometry" />
        </mxCell>
        <mxCell id="ztzkhqZgpPjDbpLTwm-F-60" value="«component»&lt;br&gt;&lt;b&gt;Authentication/Authorization&lt;br&gt;(B2C)&lt;br&gt;&lt;/b&gt;" style="html=1;dropTarget=0;" parent="1" vertex="1">
          <mxGeometry x="-590" y="-900" width="180" height="90" as="geometry" />
        </mxCell>
        <mxCell id="ztzkhqZgpPjDbpLTwm-F-61" value="" style="shape=module;jettyWidth=8;jettyHeight=4;" parent="ztzkhqZgpPjDbpLTwm-F-60" vertex="1">
          <mxGeometry x="1" width="20" height="20" relative="1" as="geometry">
            <mxPoint x="-27" y="7" as="offset" />
          </mxGeometry>
        </mxCell>
        <mxCell id="ztzkhqZgpPjDbpLTwm-F-62" value="«component»&lt;br&gt;&lt;b&gt;QR Generator&lt;/b&gt;" style="html=1;dropTarget=0;" parent="1" vertex="1">
          <mxGeometry x="-590" y="-800" width="180" height="90" as="geometry" />
        </mxCell>
        <mxCell id="ztzkhqZgpPjDbpLTwm-F-63" value="" style="shape=module;jettyWidth=8;jettyHeight=4;" parent="ztzkhqZgpPjDbpLTwm-F-62" vertex="1">
          <mxGeometry x="1" width="20" height="20" relative="1" as="geometry">
            <mxPoint x="-27" y="7" as="offset" />
          </mxGeometry>
        </mxCell>
        <mxCell id="ztzkhqZgpPjDbpLTwm-F-64" value="«component»&lt;br&gt;&lt;b&gt;Scan QR Code&lt;/b&gt;" style="html=1;dropTarget=0;" parent="1" vertex="1">
          <mxGeometry x="-590" y="-700" width="180" height="90" as="geometry" />
        </mxCell>
        <mxCell id="ztzkhqZgpPjDbpLTwm-F-65" value="" style="shape=module;jettyWidth=8;jettyHeight=4;" parent="ztzkhqZgpPjDbpLTwm-F-64" vertex="1">
          <mxGeometry x="1" width="20" height="20" relative="1" as="geometry">
            <mxPoint x="-27" y="7" as="offset" />
          </mxGeometry>
        </mxCell>
        <mxCell id="ztzkhqZgpPjDbpLTwm-F-66" value="«component»&lt;br&gt;&lt;b&gt;Print QR Code&lt;/b&gt;" style="html=1;dropTarget=0;" parent="1" vertex="1">
          <mxGeometry x="-590" y="-600" width="180" height="90" as="geometry" />
        </mxCell>
        <mxCell id="ztzkhqZgpPjDbpLTwm-F-67" value="" style="shape=module;jettyWidth=8;jettyHeight=4;" parent="ztzkhqZgpPjDbpLTwm-F-66" vertex="1">
          <mxGeometry x="1" width="20" height="20" relative="1" as="geometry">
            <mxPoint x="-27" y="7" as="offset" />
          </mxGeometry>
        </mxCell>
        <mxCell id="ztzkhqZgpPjDbpLTwm-F-68" value="" style="html=1;dropTarget=0;" parent="1" vertex="1">
          <mxGeometry x="-357" y="-900" width="242" height="260" as="geometry" />
        </mxCell>
        <mxCell id="ztzkhqZgpPjDbpLTwm-F-69" value="" style="shape=module;jettyWidth=8;jettyHeight=4;" parent="ztzkhqZgpPjDbpLTwm-F-68" vertex="1">
          <mxGeometry x="1" width="20" height="20" relative="1" as="geometry">
            <mxPoint x="-27" y="7" as="offset" />
          </mxGeometry>
        </mxCell>
        <mxCell id="ztzkhqZgpPjDbpLTwm-F-70" value="«data»&lt;br&gt;&lt;b&gt;Data Models&lt;/b&gt;" style="html=1;dropTarget=0;" parent="1" vertex="1">
          <mxGeometry x="-330.5" y="-860" width="147" height="60" as="geometry" />
        </mxCell>
        <mxCell id="ztzkhqZgpPjDbpLTwm-F-71" value="" style="shape=module;jettyWidth=8;jettyHeight=4;" parent="ztzkhqZgpPjDbpLTwm-F-70" vertex="1">
          <mxGeometry x="1" width="20" height="20" relative="1" as="geometry">
            <mxPoint x="-27" y="7" as="offset" />
          </mxGeometry>
        </mxCell>
        <mxCell id="ztzkhqZgpPjDbpLTwm-F-72" value="«data»&lt;br&gt;&lt;b&gt;DAO&lt;/b&gt;" style="html=1;dropTarget=0;" parent="1" vertex="1">
          <mxGeometry x="-330.5" y="-785" width="145.5" height="60" as="geometry" />
        </mxCell>
        <mxCell id="ztzkhqZgpPjDbpLTwm-F-73" value="" style="shape=module;jettyWidth=8;jettyHeight=4;" parent="ztzkhqZgpPjDbpLTwm-F-72" vertex="1">
          <mxGeometry x="1" width="20" height="20" relative="1" as="geometry">
            <mxPoint x="-27" y="7" as="offset" />
          </mxGeometry>
        </mxCell>
        <mxCell id="ztzkhqZgpPjDbpLTwm-F-74" value="Data component" style="text;html=1;strokeColor=none;fillColor=none;align=center;verticalAlign=middle;whiteSpace=wrap;rounded=0;" parent="1" vertex="1">
          <mxGeometry x="-357" y="-900" width="110" height="30" as="geometry" />
        </mxCell>
        <mxCell id="ztzkhqZgpPjDbpLTwm-F-75" value="Use" style="endArrow=open;endSize=12;dashed=1;html=1;rounded=0;entryX=0;entryY=0.5;entryDx=0;entryDy=0;exitX=0.5;exitY=0.5;exitDx=0;exitDy=0;exitPerimeter=0;" parent="1" source="ztzkhqZgpPjDbpLTwm-F-55" target="ztzkhqZgpPjDbpLTwm-F-60" edge="1">
          <mxGeometry width="160" relative="1" as="geometry">
            <mxPoint x="-430" y="-590" as="sourcePoint" />
            <mxPoint x="-270" y="-590" as="targetPoint" />
          </mxGeometry>
        </mxCell>
        <mxCell id="ztzkhqZgpPjDbpLTwm-F-76" value="Use" style="endArrow=open;endSize=12;dashed=1;html=1;rounded=0;entryX=0;entryY=0.5;entryDx=0;entryDy=0;" parent="1" target="ztzkhqZgpPjDbpLTwm-F-62" edge="1">
          <mxGeometry width="160" relative="1" as="geometry">
            <mxPoint x="-830" y="-700" as="sourcePoint" />
            <mxPoint x="-580" y="-845" as="targetPoint" />
          </mxGeometry>
        </mxCell>
        <mxCell id="ztzkhqZgpPjDbpLTwm-F-77" value="Use" style="endArrow=open;endSize=12;dashed=1;html=1;rounded=0;entryX=0;entryY=0.5;entryDx=0;entryDy=0;exitX=0.5;exitY=0.5;exitDx=0;exitDy=0;exitPerimeter=0;" parent="1" source="ztzkhqZgpPjDbpLTwm-F-55" target="ztzkhqZgpPjDbpLTwm-F-64" edge="1">
          <mxGeometry width="160" relative="1" as="geometry">
            <mxPoint x="-815" y="-680" as="sourcePoint" />
            <mxPoint x="-570" y="-835" as="targetPoint" />
          </mxGeometry>
        </mxCell>
        <mxCell id="ztzkhqZgpPjDbpLTwm-F-78" value="Use" style="endArrow=open;endSize=12;dashed=1;html=1;rounded=0;entryX=0;entryY=0.5;entryDx=0;entryDy=0;exitX=0.5;exitY=0.5;exitDx=0;exitDy=0;exitPerimeter=0;" parent="1" source="ztzkhqZgpPjDbpLTwm-F-55" target="ztzkhqZgpPjDbpLTwm-F-66" edge="1">
          <mxGeometry width="160" relative="1" as="geometry">
            <mxPoint x="-805" y="-670" as="sourcePoint" />
            <mxPoint x="-560" y="-825" as="targetPoint" />
          </mxGeometry>
        </mxCell>
        <mxCell id="ztzkhqZgpPjDbpLTwm-F-79" value="Realm DB" style="shape=cylinder3;whiteSpace=wrap;html=1;boundedLbl=1;backgroundOutline=1;size=15;" parent="1" vertex="1">
          <mxGeometry x="-357" y="-610" width="127" height="80" as="geometry" />
        </mxCell>
        <mxCell id="ztzkhqZgpPjDbpLTwm-F-80" value="" style="endArrow=classic;startArrow=classic;html=1;rounded=0;entryX=0.25;entryY=1;entryDx=0;entryDy=0;" parent="1" source="ztzkhqZgpPjDbpLTwm-F-79" target="ztzkhqZgpPjDbpLTwm-F-72" edge="1">
          <mxGeometry width="50" height="50" relative="1" as="geometry">
            <mxPoint x="-270" y="-610" as="sourcePoint" />
            <mxPoint x="-220" y="-660" as="targetPoint" />
          </mxGeometry>
        </mxCell>
        <mxCell id="ztzkhqZgpPjDbpLTwm-F-81" value="offline" style="edgeLabel;html=1;align=center;verticalAlign=middle;resizable=0;points=[];" parent="ztzkhqZgpPjDbpLTwm-F-80" vertex="1" connectable="0">
          <mxGeometry x="-0.1143" relative="1" as="geometry">
            <mxPoint x="1" as="offset" />
          </mxGeometry>
        </mxCell>
        <mxCell id="ztzkhqZgpPjDbpLTwm-F-85" value="«data»&lt;br&gt;&lt;b&gt;Data Sync&lt;/b&gt;" style="html=1;dropTarget=0;" parent="1" vertex="1">
          <mxGeometry x="-267.5" y="-710" width="147" height="60" as="geometry" />
        </mxCell>
        <mxCell id="ztzkhqZgpPjDbpLTwm-F-86" value="" style="shape=module;jettyWidth=8;jettyHeight=4;" parent="ztzkhqZgpPjDbpLTwm-F-85" vertex="1">
          <mxGeometry x="1" width="20" height="20" relative="1" as="geometry">
            <mxPoint x="-27" y="7" as="offset" />
          </mxGeometry>
        </mxCell>
        <mxCell id="ztzkhqZgpPjDbpLTwm-F-88" value="" style="rounded=0;whiteSpace=wrap;html=1;fillColor=#e1d5e7;strokeColor=#9673a6;" parent="1" vertex="1">
          <mxGeometry x="50" y="-680" width="700" height="640" as="geometry" />
        </mxCell>
        <mxCell id="ztzkhqZgpPjDbpLTwm-F-89" value="foundation component" style="text;html=1;strokeColor=none;fillColor=none;align=center;verticalAlign=middle;whiteSpace=wrap;rounded=0;" parent="1" vertex="1">
          <mxGeometry x="-287.5" y="-120" width="140" height="30" as="geometry" />
        </mxCell>
        <mxCell id="ztzkhqZgpPjDbpLTwm-F-90" value="«backend»&lt;br&gt;&lt;b&gt;Authorization&lt;/b&gt;" style="html=1;dropTarget=0;" parent="1" vertex="1">
          <mxGeometry x="168" y="-645" width="180" height="90" as="geometry" />
        </mxCell>
        <mxCell id="ztzkhqZgpPjDbpLTwm-F-91" value="" style="shape=module;jettyWidth=8;jettyHeight=4;" parent="ztzkhqZgpPjDbpLTwm-F-90" vertex="1">
          <mxGeometry x="1" width="20" height="20" relative="1" as="geometry">
            <mxPoint x="-27" y="7" as="offset" />
          </mxGeometry>
        </mxCell>
        <mxCell id="ztzkhqZgpPjDbpLTwm-F-92" value="«backend»&lt;br&gt;&lt;b&gt;User Management&lt;/b&gt;" style="html=1;dropTarget=0;" parent="1" vertex="1">
          <mxGeometry x="168" y="-543" width="180" height="90" as="geometry" />
        </mxCell>
        <mxCell id="ztzkhqZgpPjDbpLTwm-F-93" value="" style="shape=module;jettyWidth=8;jettyHeight=4;" parent="ztzkhqZgpPjDbpLTwm-F-92" vertex="1">
          <mxGeometry x="1" width="20" height="20" relative="1" as="geometry">
            <mxPoint x="-27" y="7" as="offset" />
          </mxGeometry>
        </mxCell>
        <mxCell id="ztzkhqZgpPjDbpLTwm-F-94" value="«backend»&lt;br&gt;&lt;b&gt;Company/Partner&lt;br&gt;Management&lt;/b&gt;" style="html=1;dropTarget=0;" parent="1" vertex="1">
          <mxGeometry x="168" y="-440" width="180" height="90" as="geometry" />
        </mxCell>
        <mxCell id="ztzkhqZgpPjDbpLTwm-F-95" value="" style="shape=module;jettyWidth=8;jettyHeight=4;" parent="ztzkhqZgpPjDbpLTwm-F-94" vertex="1">
          <mxGeometry x="1" width="20" height="20" relative="1" as="geometry">
            <mxPoint x="-27" y="7" as="offset" />
          </mxGeometry>
        </mxCell>
        <mxCell id="ztzkhqZgpPjDbpLTwm-F-96" value="«backend»&lt;br&gt;&lt;b&gt;Email Service&lt;/b&gt;" style="html=1;dropTarget=0;" parent="1" vertex="1">
          <mxGeometry x="168" y="-340" width="180" height="90" as="geometry" />
        </mxCell>
        <mxCell id="ztzkhqZgpPjDbpLTwm-F-97" value="" style="shape=module;jettyWidth=8;jettyHeight=4;" parent="ztzkhqZgpPjDbpLTwm-F-96" vertex="1">
          <mxGeometry x="1" width="20" height="20" relative="1" as="geometry">
            <mxPoint x="-27" y="7" as="offset" />
          </mxGeometry>
        </mxCell>
        <mxCell id="ztzkhqZgpPjDbpLTwm-F-98" value="«backend»&lt;br&gt;&lt;b&gt;Data Sync&lt;/b&gt;" style="html=1;dropTarget=0;" parent="1" vertex="1">
          <mxGeometry x="168" y="-240" width="180" height="90" as="geometry" />
        </mxCell>
        <mxCell id="ztzkhqZgpPjDbpLTwm-F-99" value="" style="shape=module;jettyWidth=8;jettyHeight=4;" parent="ztzkhqZgpPjDbpLTwm-F-98" vertex="1">
          <mxGeometry x="1" width="20" height="20" relative="1" as="geometry">
            <mxPoint x="-27" y="7" as="offset" />
          </mxGeometry>
        </mxCell>
        <mxCell id="ztzkhqZgpPjDbpLTwm-F-100" value="" style="html=1;dropTarget=0;" parent="1" vertex="1">
          <mxGeometry x="425" y="-670" width="295" height="185" as="geometry" />
        </mxCell>
        <mxCell id="ztzkhqZgpPjDbpLTwm-F-101" value="" style="shape=module;jettyWidth=8;jettyHeight=4;" parent="ztzkhqZgpPjDbpLTwm-F-100" vertex="1">
          <mxGeometry x="1" width="20" height="20" relative="1" as="geometry">
            <mxPoint x="-27" y="7" as="offset" />
          </mxGeometry>
        </mxCell>
        <mxCell id="ztzkhqZgpPjDbpLTwm-F-102" value="«data»&lt;br&gt;&lt;b&gt;Data Models&lt;/b&gt;" style="html=1;dropTarget=0;" parent="1" vertex="1">
          <mxGeometry x="451.5" y="-630" width="147" height="60" as="geometry" />
        </mxCell>
        <mxCell id="ztzkhqZgpPjDbpLTwm-F-103" value="" style="shape=module;jettyWidth=8;jettyHeight=4;" parent="ztzkhqZgpPjDbpLTwm-F-102" vertex="1">
          <mxGeometry x="1" width="20" height="20" relative="1" as="geometry">
            <mxPoint x="-27" y="7" as="offset" />
          </mxGeometry>
        </mxCell>
        <mxCell id="ztzkhqZgpPjDbpLTwm-F-104" value="«data»&lt;br&gt;&lt;b&gt;DAO&lt;/b&gt;" style="html=1;dropTarget=0;" parent="1" vertex="1">
          <mxGeometry x="451.5" y="-555" width="145.5" height="60" as="geometry" />
        </mxCell>
        <mxCell id="ztzkhqZgpPjDbpLTwm-F-105" value="" style="shape=module;jettyWidth=8;jettyHeight=4;" parent="ztzkhqZgpPjDbpLTwm-F-104" vertex="1">
          <mxGeometry x="1" width="20" height="20" relative="1" as="geometry">
            <mxPoint x="-27" y="7" as="offset" />
          </mxGeometry>
        </mxCell>
        <mxCell id="ztzkhqZgpPjDbpLTwm-F-106" value="Data component" style="text;html=1;strokeColor=none;fillColor=none;align=center;verticalAlign=middle;whiteSpace=wrap;rounded=0;" parent="1" vertex="1">
          <mxGeometry x="425" y="-670" width="110" height="30" as="geometry" />
        </mxCell>
        <mxCell id="ztzkhqZgpPjDbpLTwm-F-113" value="Backend API" style="text;html=1;strokeColor=none;fillColor=none;align=center;verticalAlign=middle;whiteSpace=wrap;rounded=0;" parent="1" vertex="1">
          <mxGeometry x="50" y="-680" width="95" height="30" as="geometry" />
        </mxCell>
        <mxCell id="ztzkhqZgpPjDbpLTwm-F-114" value="Azure B2C" style="text;html=1;strokeColor=none;fillColor=none;align=center;verticalAlign=middle;whiteSpace=wrap;rounded=0;fontSize=16;" parent="1" vertex="1">
          <mxGeometry x="50" y="-900" width="95" height="30" as="geometry" />
        </mxCell>
        <mxCell id="ztzkhqZgpPjDbpLTwm-F-115" value="«component»&lt;br&gt;&lt;b&gt;Identify Provider&lt;/b&gt;" style="html=1;dropTarget=0;" parent="1" vertex="1">
          <mxGeometry x="540" y="-830" width="180" height="90" as="geometry" />
        </mxCell>
        <mxCell id="ztzkhqZgpPjDbpLTwm-F-116" value="" style="shape=module;jettyWidth=8;jettyHeight=4;" parent="ztzkhqZgpPjDbpLTwm-F-115" vertex="1">
          <mxGeometry x="1" width="20" height="20" relative="1" as="geometry">
            <mxPoint x="-27" y="7" as="offset" />
          </mxGeometry>
        </mxCell>
        <mxCell id="ztzkhqZgpPjDbpLTwm-F-117" value="«component»&lt;br&gt;&lt;b&gt;User sign up/sign in flow&lt;/b&gt;" style="html=1;dropTarget=0;" parent="1" vertex="1">
          <mxGeometry x="310" y="-820" width="180" height="90" as="geometry" />
        </mxCell>
        <mxCell id="ztzkhqZgpPjDbpLTwm-F-118" value="" style="shape=module;jettyWidth=8;jettyHeight=4;" parent="ztzkhqZgpPjDbpLTwm-F-117" vertex="1">
          <mxGeometry x="1" width="20" height="20" relative="1" as="geometry">
            <mxPoint x="-27" y="7" as="offset" />
          </mxGeometry>
        </mxCell>
        <mxCell id="ztzkhqZgpPjDbpLTwm-F-119" value="«component»&lt;br&gt;&lt;b&gt;Change profile flow&lt;/b&gt;" style="html=1;dropTarget=0;" parent="1" vertex="1">
          <mxGeometry x="100" y="-820" width="180" height="90" as="geometry" />
        </mxCell>
        <mxCell id="ztzkhqZgpPjDbpLTwm-F-120" value="" style="shape=module;jettyWidth=8;jettyHeight=4;" parent="ztzkhqZgpPjDbpLTwm-F-119" vertex="1">
          <mxGeometry x="1" width="20" height="20" relative="1" as="geometry">
            <mxPoint x="-27" y="7" as="offset" />
          </mxGeometry>
        </mxCell>
        <mxCell id="ztzkhqZgpPjDbpLTwm-F-121" value="" style="rounded=0;whiteSpace=wrap;html=1;fillColor=#ffe6cc;strokeColor=#d79b00;" parent="1" vertex="1">
          <mxGeometry x="50" y="20" width="700" height="200" as="geometry" />
        </mxCell>
        <mxCell id="ztzkhqZgpPjDbpLTwm-F-122" value="Azure B2B" style="text;html=1;strokeColor=none;fillColor=none;align=center;verticalAlign=middle;whiteSpace=wrap;rounded=0;fontSize=16;" parent="1" vertex="1">
          <mxGeometry x="50" y="20" width="95" height="30" as="geometry" />
        </mxCell>
        <mxCell id="ztzkhqZgpPjDbpLTwm-F-123" value="«component»&lt;br&gt;&lt;b&gt;Identify Provider&lt;/b&gt;" style="html=1;dropTarget=0;" parent="1" vertex="1">
          <mxGeometry x="110" y="90" width="180" height="90" as="geometry" />
        </mxCell>
        <mxCell id="ztzkhqZgpPjDbpLTwm-F-124" value="" style="shape=module;jettyWidth=8;jettyHeight=4;" parent="ztzkhqZgpPjDbpLTwm-F-123" vertex="1">
          <mxGeometry x="1" width="20" height="20" relative="1" as="geometry">
            <mxPoint x="-27" y="7" as="offset" />
          </mxGeometry>
        </mxCell>
        <mxCell id="ztzkhqZgpPjDbpLTwm-F-126" value="" style="rounded=0;whiteSpace=wrap;html=1;fillColor=#ffe6cc;strokeColor=#d79b00;" parent="1" vertex="1">
          <mxGeometry x="810" y="-765" width="180" height="765" as="geometry" />
        </mxCell>
        <mxCell id="ztzkhqZgpPjDbpLTwm-F-127" value="Cloud Platform" style="text;html=1;strokeColor=none;fillColor=none;align=center;verticalAlign=middle;whiteSpace=wrap;rounded=0;fontSize=16;" parent="1" vertex="1">
          <mxGeometry x="810" y="-765" width="110" height="30" as="geometry" />
        </mxCell>
        <mxCell id="ztzkhqZgpPjDbpLTwm-F-128" value="Postgres DB" style="outlineConnect=0;dashed=0;verticalLabelPosition=bottom;verticalAlign=top;align=center;html=1;shape=mxgraph.aws3.postgre_sql_instance;fillColor=#2E73B8;gradientColor=none;" parent="1" vertex="1">
          <mxGeometry x="855" y="-720" width="90" height="90" as="geometry" />
        </mxCell>
        <mxCell id="ztzkhqZgpPjDbpLTwm-F-129" value="Redis" style="outlineConnect=0;dashed=0;verticalLabelPosition=bottom;verticalAlign=top;align=center;html=1;shape=mxgraph.aws3.redis;fillColor=#2E73B8;gradientColor=none;" parent="1" vertex="1">
          <mxGeometry x="855" y="-590" width="90" height="95" as="geometry" />
        </mxCell>
        <mxCell id="ztzkhqZgpPjDbpLTwm-F-130" value="«backend»&lt;br&gt;&lt;b&gt;Package Management&lt;/b&gt;" style="html=1;dropTarget=0;" parent="1" vertex="1">
          <mxGeometry x="168" y="-140" width="180" height="90" as="geometry" />
        </mxCell>
        <mxCell id="ztzkhqZgpPjDbpLTwm-F-131" value="" style="shape=module;jettyWidth=8;jettyHeight=4;" parent="ztzkhqZgpPjDbpLTwm-F-130" vertex="1">
          <mxGeometry x="1" width="20" height="20" relative="1" as="geometry">
            <mxPoint x="-27" y="7" as="offset" />
          </mxGeometry>
        </mxCell>
        <mxCell id="ztzkhqZgpPjDbpLTwm-F-134" value="«component»&lt;br&gt;&lt;b&gt;Package Management&lt;/b&gt;" style="html=1;dropTarget=0;" parent="1" vertex="1">
          <mxGeometry x="-590" y="-490" width="180" height="90" as="geometry" />
        </mxCell>
        <mxCell id="ztzkhqZgpPjDbpLTwm-F-135" value="" style="shape=module;jettyWidth=8;jettyHeight=4;" parent="ztzkhqZgpPjDbpLTwm-F-134" vertex="1">
          <mxGeometry x="1" width="20" height="20" relative="1" as="geometry">
            <mxPoint x="-27" y="7" as="offset" />
          </mxGeometry>
        </mxCell>
        <mxCell id="ztzkhqZgpPjDbpLTwm-F-136" value="Use" style="endArrow=open;endSize=12;dashed=1;html=1;rounded=0;entryX=0;entryY=0.5;entryDx=0;entryDy=0;exitX=0.5;exitY=0.5;exitDx=0;exitDy=0;exitPerimeter=0;" parent="1" source="ztzkhqZgpPjDbpLTwm-F-55" target="ztzkhqZgpPjDbpLTwm-F-134" edge="1">
          <mxGeometry width="160" relative="1" as="geometry">
            <mxPoint x="-825" y="-690" as="sourcePoint" />
            <mxPoint x="-580" y="-545" as="targetPoint" />
          </mxGeometry>
        </mxCell>
        <mxCell id="ztzkhqZgpPjDbpLTwm-F-137" value="" style="endArrow=none;html=1;rounded=0;entryX=0.5;entryY=0;entryDx=0;entryDy=0;exitX=0.5;exitY=0;exitDx=0;exitDy=0;strokeWidth=2;" parent="1" source="ztzkhqZgpPjDbpLTwm-F-60" target="ztzkhqZgpPjDbpLTwm-F-115" edge="1">
          <mxGeometry width="50" height="50" relative="1" as="geometry">
            <mxPoint x="-180" y="-670" as="sourcePoint" />
            <mxPoint x="-130" y="-720" as="targetPoint" />
            <Array as="points">
              <mxPoint x="-500" y="-1010" />
              <mxPoint x="630" y="-1010" />
            </Array>
          </mxGeometry>
        </mxCell>
        <mxCell id="ztzkhqZgpPjDbpLTwm-F-138" value="&lt;font style=&quot;font-size: 16px;&quot;&gt;Integration&lt;/font&gt;" style="edgeLabel;html=1;align=center;verticalAlign=middle;resizable=0;points=[];" parent="ztzkhqZgpPjDbpLTwm-F-137" vertex="1" connectable="0">
          <mxGeometry x="0.0471" y="1" relative="1" as="geometry">
            <mxPoint as="offset" />
          </mxGeometry>
        </mxCell>
        <mxCell id="ztzkhqZgpPjDbpLTwm-F-139" value="" style="endArrow=none;html=1;rounded=0;strokeWidth=2;fontSize=16;exitX=0.5;exitY=0;exitDx=0;exitDy=0;entryX=0;entryY=0.5;entryDx=0;entryDy=0;" parent="1" source="ztzkhqZgpPjDbpLTwm-F-19" target="ztzkhqZgpPjDbpLTwm-F-166" edge="1">
          <mxGeometry width="50" height="50" relative="1" as="geometry">
            <mxPoint x="-210" y="-360" as="sourcePoint" />
            <mxPoint x="-160" y="-410" as="targetPoint" />
            <Array as="points">
              <mxPoint x="-515" y="-360" />
              <mxPoint x="-20" y="-360" />
              <mxPoint x="-20" y="-790" />
            </Array>
          </mxGeometry>
        </mxCell>
        <mxCell id="ztzkhqZgpPjDbpLTwm-F-140" value="Embedded" style="edgeLabel;html=1;align=center;verticalAlign=middle;resizable=0;points=[];fontSize=16;" parent="ztzkhqZgpPjDbpLTwm-F-139" vertex="1" connectable="0">
          <mxGeometry x="-0.0279" y="1" relative="1" as="geometry">
            <mxPoint as="offset" />
          </mxGeometry>
        </mxCell>
        <mxCell id="ztzkhqZgpPjDbpLTwm-F-141" value="" style="endArrow=none;html=1;rounded=0;strokeWidth=2;fontSize=16;entryX=0.5;entryY=1;entryDx=0;entryDy=0;exitX=0.5;exitY=1;exitDx=0;exitDy=0;" parent="1" source="ztzkhqZgpPjDbpLTwm-F-9" target="ztzkhqZgpPjDbpLTwm-F-123" edge="1">
          <mxGeometry width="50" height="50" relative="1" as="geometry">
            <mxPoint x="-500" y="430" as="sourcePoint" />
            <mxPoint x="-450" y="380" as="targetPoint" />
            <Array as="points">
              <mxPoint x="-515" y="290" />
              <mxPoint x="200" y="290" />
            </Array>
          </mxGeometry>
        </mxCell>
        <mxCell id="ztzkhqZgpPjDbpLTwm-F-162" value="Integration" style="edgeLabel;html=1;align=center;verticalAlign=middle;resizable=0;points=[];fontSize=16;" parent="ztzkhqZgpPjDbpLTwm-F-141" vertex="1" connectable="0">
          <mxGeometry x="-0.0751" y="2" relative="1" as="geometry">
            <mxPoint as="offset" />
          </mxGeometry>
        </mxCell>
        <mxCell id="ztzkhqZgpPjDbpLTwm-F-142" value="" style="html=1;dropTarget=0;fontSize=16;" parent="1" vertex="1">
          <mxGeometry x="425" y="-440" width="295" height="380" as="geometry" />
        </mxCell>
        <mxCell id="ztzkhqZgpPjDbpLTwm-F-143" value="" style="shape=module;jettyWidth=8;jettyHeight=4;fontSize=16;" parent="ztzkhqZgpPjDbpLTwm-F-142" vertex="1">
          <mxGeometry x="1" width="20" height="20" relative="1" as="geometry">
            <mxPoint x="-27" y="7" as="offset" />
          </mxGeometry>
        </mxCell>
        <mxCell id="ztzkhqZgpPjDbpLTwm-F-144" value="framework component" style="text;html=1;strokeColor=none;fillColor=none;align=center;verticalAlign=middle;whiteSpace=wrap;rounded=0;fontSize=16;" parent="1" vertex="1">
          <mxGeometry x="425" y="-430" width="175" height="30" as="geometry" />
        </mxCell>
        <mxCell id="ztzkhqZgpPjDbpLTwm-F-145" value="swagger" style="shape=module;align=left;spacingLeft=20;align=center;verticalAlign=top;fontSize=16;" parent="1" vertex="1">
          <mxGeometry x="452" y="-400" width="100" height="50" as="geometry" />
        </mxCell>
        <mxCell id="ztzkhqZgpPjDbpLTwm-F-146" value="logging" style="shape=module;align=left;spacingLeft=20;align=center;verticalAlign=top;fontSize=16;" parent="1" vertex="1">
          <mxGeometry x="590" y="-400" width="100" height="50" as="geometry" />
        </mxCell>
        <mxCell id="ztzkhqZgpPjDbpLTwm-F-147" value="exception" style="shape=module;align=left;spacingLeft=20;align=center;verticalAlign=top;fontSize=16;" parent="1" vertex="1">
          <mxGeometry x="452" y="-330" width="100" height="50" as="geometry" />
        </mxCell>
        <mxCell id="ztzkhqZgpPjDbpLTwm-F-148" value="transaction" style="shape=module;align=left;spacingLeft=20;align=center;verticalAlign=top;fontSize=16;" parent="1" vertex="1">
          <mxGeometry x="590" y="-330" width="100" height="50" as="geometry" />
        </mxCell>
        <mxCell id="ztzkhqZgpPjDbpLTwm-F-149" value="mybatis" style="shape=module;align=left;spacingLeft=20;align=center;verticalAlign=top;fontSize=16;" parent="1" vertex="1">
          <mxGeometry x="452" y="-260" width="100" height="50" as="geometry" />
        </mxCell>
        <mxCell id="ztzkhqZgpPjDbpLTwm-F-150" value="PageHelper" style="shape=module;align=left;spacingLeft=20;align=center;verticalAlign=top;fontSize=16;" parent="1" vertex="1">
          <mxGeometry x="590" y="-260" width="100" height="50" as="geometry" />
        </mxCell>
        <mxCell id="ztzkhqZgpPjDbpLTwm-F-151" value="ThymeLeaf" style="shape=module;align=left;spacingLeft=20;align=center;verticalAlign=top;fontSize=16;" parent="1" vertex="1">
          <mxGeometry x="452" y="-190" width="100" height="50" as="geometry" />
        </mxCell>
        <mxCell id="ztzkhqZgpPjDbpLTwm-F-152" value="Object &#xa;Storage" style="shape=module;align=left;spacingLeft=20;align=center;verticalAlign=top;fontSize=16;" parent="1" vertex="1">
          <mxGeometry x="590" y="-190" width="100" height="50" as="geometry" />
        </mxCell>
        <mxCell id="ztzkhqZgpPjDbpLTwm-F-153" value="Redis &#xa;starter" style="shape=module;align=left;spacingLeft=20;align=center;verticalAlign=top;fontSize=16;" parent="1" vertex="1">
          <mxGeometry x="452" y="-120" width="100" height="50" as="geometry" />
        </mxCell>
        <mxCell id="ztzkhqZgpPjDbpLTwm-F-154" value="Postgre&#xa;starter" style="shape=module;align=left;spacingLeft=20;align=center;verticalAlign=top;fontSize=16;" parent="1" vertex="1">
          <mxGeometry x="590" y="-120" width="100" height="50" as="geometry" />
        </mxCell>
        <mxCell id="ztzkhqZgpPjDbpLTwm-F-155" value="Use" style="endArrow=open;endSize=12;dashed=1;html=1;rounded=0;strokeWidth=2;fontSize=16;exitX=1;exitY=0.5;exitDx=0;exitDy=0;entryX=0;entryY=0;entryDx=0;entryDy=0;" parent="1" source="ztzkhqZgpPjDbpLTwm-F-90" target="ztzkhqZgpPjDbpLTwm-F-144" edge="1">
          <mxGeometry width="160" relative="1" as="geometry">
            <mxPoint x="410" y="-340" as="sourcePoint" />
            <mxPoint x="570" y="-340" as="targetPoint" />
          </mxGeometry>
        </mxCell>
        <mxCell id="ztzkhqZgpPjDbpLTwm-F-156" value="Use" style="endArrow=open;endSize=12;dashed=1;html=1;rounded=0;strokeWidth=2;fontSize=16;exitX=1;exitY=0.5;exitDx=0;exitDy=0;entryX=0;entryY=0;entryDx=0;entryDy=0;" parent="1" source="ztzkhqZgpPjDbpLTwm-F-92" target="ztzkhqZgpPjDbpLTwm-F-144" edge="1">
          <mxGeometry width="160" relative="1" as="geometry">
            <mxPoint x="358" y="-590" as="sourcePoint" />
            <mxPoint x="435" y="-430" as="targetPoint" />
          </mxGeometry>
        </mxCell>
        <mxCell id="ztzkhqZgpPjDbpLTwm-F-157" value="Use" style="endArrow=open;endSize=12;dashed=1;html=1;rounded=0;strokeWidth=2;fontSize=16;exitX=1;exitY=0.5;exitDx=0;exitDy=0;entryX=0;entryY=0.25;entryDx=0;entryDy=0;" parent="1" source="ztzkhqZgpPjDbpLTwm-F-94" target="ztzkhqZgpPjDbpLTwm-F-142" edge="1">
          <mxGeometry width="160" relative="1" as="geometry">
            <mxPoint x="368" y="-580" as="sourcePoint" />
            <mxPoint x="445" y="-420" as="targetPoint" />
          </mxGeometry>
        </mxCell>
        <mxCell id="ztzkhqZgpPjDbpLTwm-F-158" value="Use" style="endArrow=open;endSize=12;dashed=1;html=1;rounded=0;strokeWidth=2;fontSize=16;exitX=1;exitY=0.5;exitDx=0;exitDy=0;entryX=0;entryY=0.373;entryDx=0;entryDy=0;entryPerimeter=0;" parent="1" source="ztzkhqZgpPjDbpLTwm-F-96" target="ztzkhqZgpPjDbpLTwm-F-142" edge="1">
          <mxGeometry width="160" relative="1" as="geometry">
            <mxPoint x="378" y="-570" as="sourcePoint" />
            <mxPoint x="455" y="-410" as="targetPoint" />
          </mxGeometry>
        </mxCell>
        <mxCell id="ztzkhqZgpPjDbpLTwm-F-159" value="Use" style="endArrow=open;endSize=12;dashed=1;html=1;rounded=0;strokeWidth=2;fontSize=16;exitX=1;exitY=0.5;exitDx=0;exitDy=0;entryX=0;entryY=0.5;entryDx=0;entryDy=0;" parent="1" source="ztzkhqZgpPjDbpLTwm-F-98" target="ztzkhqZgpPjDbpLTwm-F-142" edge="1">
          <mxGeometry width="160" relative="1" as="geometry">
            <mxPoint x="388" y="-560" as="sourcePoint" />
            <mxPoint x="465" y="-400" as="targetPoint" />
          </mxGeometry>
        </mxCell>
        <mxCell id="ztzkhqZgpPjDbpLTwm-F-160" value="Use" style="endArrow=open;endSize=12;dashed=1;html=1;rounded=0;strokeWidth=2;fontSize=16;exitX=1;exitY=0.5;exitDx=0;exitDy=0;entryX=0;entryY=0.75;entryDx=0;entryDy=0;" parent="1" source="ztzkhqZgpPjDbpLTwm-F-130" target="ztzkhqZgpPjDbpLTwm-F-142" edge="1">
          <mxGeometry width="160" relative="1" as="geometry">
            <mxPoint x="398" y="-550" as="sourcePoint" />
            <mxPoint x="475" y="-390" as="targetPoint" />
          </mxGeometry>
        </mxCell>
        <mxCell id="ztzkhqZgpPjDbpLTwm-F-161" value="Use" style="endArrow=open;endSize=12;dashed=1;html=1;rounded=0;strokeWidth=2;fontSize=16;exitX=0.5;exitY=1;exitDx=0;exitDy=0;entryX=0.5;entryY=0;entryDx=0;entryDy=0;" parent="1" source="ztzkhqZgpPjDbpLTwm-F-100" target="ztzkhqZgpPjDbpLTwm-F-142" edge="1">
          <mxGeometry width="160" relative="1" as="geometry">
            <mxPoint x="408" y="-540" as="sourcePoint" />
            <mxPoint x="485" y="-380" as="targetPoint" />
          </mxGeometry>
        </mxCell>
        <mxCell id="ztzkhqZgpPjDbpLTwm-F-163" value="" style="shape=doubleArrow;whiteSpace=wrap;html=1;fontSize=16;fillColor=#dae8fc;strokeColor=#6c8ebf;" parent="1" vertex="1">
          <mxGeometry x="750" y="-410" width="60" height="60" as="geometry" />
        </mxCell>
        <mxCell id="ztzkhqZgpPjDbpLTwm-F-164" value="API Call" style="shape=doubleArrow;whiteSpace=wrap;html=1;fontSize=16;fillColor=#dae8fc;strokeColor=#6c8ebf;" parent="1" vertex="1">
          <mxGeometry x="-30" y="-170" width="60" height="60" as="geometry" />
        </mxCell>
        <mxCell id="ztzkhqZgpPjDbpLTwm-F-165" value="API Call" style="shape=doubleArrow;whiteSpace=wrap;html=1;fontSize=16;fillColor=#dae8fc;strokeColor=#6c8ebf;" parent="1" vertex="1">
          <mxGeometry x="-40" y="-610" width="60" height="60" as="geometry" />
        </mxCell>
        <mxCell id="ztzkhqZgpPjDbpLTwm-F-168" value="flow component" style="text;html=1;strokeColor=none;fillColor=none;align=center;verticalAlign=middle;whiteSpace=wrap;rounded=0;fontSize=16;" parent="1" vertex="1">
          <mxGeometry x="80" y="-859" width="130" height="30" as="geometry" />
        </mxCell>
        <mxCell id="ztzkhqZgpPjDbpLTwm-F-170" value="Azure Blob" style="verticalLabelPosition=bottom;html=1;verticalAlign=top;align=center;strokeColor=none;fillColor=#00BEF2;shape=mxgraph.azure.storage_blob;fontSize=16;" parent="1" vertex="1">
          <mxGeometry x="850" y="-450" width="105" height="90" as="geometry" />
        </mxCell>
        <mxCell id="ztzkhqZgpPjDbpLTwm-F-171" value="Azure Key Vault" style="sketch=0;aspect=fixed;html=1;points=[];align=center;image;fontSize=16;image=img/lib/mscae/Key_Vaults.svg;" parent="1" vertex="1">
          <mxGeometry x="855" y="-300" width="96" height="100" as="geometry" />
        </mxCell>
        <mxCell id="ztzkhqZgpPjDbpLTwm-F-172" value="BASF Office 365" style="sketch=0;pointerEvents=1;shadow=0;dashed=0;html=1;strokeColor=none;fillColor=#505050;labelPosition=center;verticalLabelPosition=bottom;outlineConnect=0;verticalAlign=top;align=center;shape=mxgraph.office.clouds.office_365;fontSize=16;" parent="1" vertex="1">
          <mxGeometry x="855" y="-110" width="101" height="61" as="geometry" />
        </mxCell>
      </root>
    </mxGraphModel>
  </diagram>
</mxfile>
